#N canvas 765 110 649 626 12;
#X declare -lib Gem;
#X obj 160 1120 gemhead;
#X obj 160 1377 rectangle 4 3;
#X msg 218 280 create \, 1;
#X msg 228 310 destroy;
#X obj 340 1170 hsl 128 15 0 134 0 0 empty empty empty -2 -8 0 10 #fcfcfc #000000 #000000 0 1;
#X floatatom 310 1300 5 0 0 0 - - - 0;
#X floatatom 255 1300 5 0 0 0 - - - 0;
#X floatatom 200 1300 5 0 0 0 - - - 0;
#X obj 180 1160 bng 15 250 50 0 empty empty empty 17 7 0 10 #fcfcfc #000000 #000000;
#X text 190 1330 cuadros;
#X text 255 1330 ancho;
#X text 310 1330 alto;
#X msg 340 1140 range 0 \$1;
#X floatatom 340 1220 5 0 0 0 - - - 0;
#X obj 340 1194 int;
#X obj 312 1690 f;
#X obj 342 1690 + 1;
#X obj 372 1600 expr 1000/ $f1;
#X obj 312 1659 bng 15 50 10 0 empty empty empty 17 7 0 10 #fcfcfc #000000 #000000;
#X obj 297 1561 tgl 15 0 empty empty empty 17 7 0 10 #fcfcfc #000000 #000000 0 1;
#X obj 286 1625 metro 200;
#X floatatom 392 1630 5 0 0 0 - - - 0;
#X floatatom 372 1570 5 0 0 0 - - - 0;
#X floatatom 520 1698 5 0 0 0 - - - 0;
#X obj 311 1759 mod;
#X floatatom 309 1810 5 0 0 0 - - - 0;
#X text 180 140 Reproduccion de video;
#X text 48 170 ************************************************************;
#X text 200 1160 output info;
#X floatatom 380 1190 5 0 0 0 - - - 0;
#X obj 218 821 gemhead;
#X obj 218 928 rectangle 4 3;
#X obj 240 1240 bng 15 250 50 0 empty empty empty 17 7 0 10 #fcfcfc #000000 #000000;
#X text 260 1240 fin;
#X obj 218 790 tgl 15 0 empty empty empty 17 7 0 10 #fcfcfc #000000 #000000 0 1;
#X obj 160 1090 tgl 15 0 empty empty empty 17 7 0 10 #fcfcfc #000000 #000000 0 1;
#X obj 218 870 pix_movie bajo.mov;
#X obj 338 850 hsl 128 15 0 127 0 0 empty empty empty -2 -8 0 10 #fcfcfc #000000 #000000 0 1;
#X obj 200 1270 unpack f f f f, f 24;
#X floatatom 365 1300 5 0 0 0 - - - 0;
#X text 365 1330 fps;
#X obj 160 1209 pix_movie bajo.mov;
#X text 190 1350 totales;
#X obj 62 1611 gemhead;
#X obj 62 1868 rectangle 4 3;
#X floatatom 92 1771 5 0 0 0 - - - 0;
#X obj 82 1651 bng 15 250 50 0 empty empty empty 17 7 0 10 #fcfcfc #000000 #000000;
#X text 82 1801 cuadros;
#X text 102 1651 output info;
#X obj 62 1581 tgl 15 0 empty empty empty 17 7 0 10 #fcfcfc #000000 #000000 0 1;
#X obj 92 1741 unpack f f f f, f 15;
#X floatatom 191 1843 5 0 0 0 - - - 0;
#X text 192 1800 fps;
#X text 82 1821 totales;
#X text 180 750 recorrido manual de frames;
#X text 50 410 ************************************************************;
#X text 50 710 ************************************************************;
#X text 200 440 reproducir videos;
#X text 50 990 ************************************************************;
#X text 180 1030 informacion de archivo leído;
#X text 50 1460 ************************************************************;
#X text 90 1510 lectura cuadro a cuadro a diferentes velocidades;
#X text 50 1940 ************************************************************;
#X text 52 92 ************************************************************;
#X text 52 22 ************************************************************;
#X text 195 42 Programación en PD;
#X text 199 62 por Damian Anache;
#X text 152 122 Introducción a librería GEM:;
#X obj 200 240 declare -lib Gem;
#X obj 218 340 gemwin 30;
#X obj 62 1700 pix_movie video.mp4;
#X msg 500 1647 20;
#X obj 463 1844 f;
#X obj 434 1777 bng 19 250 50 0 empty empty empty 0 -10 0 12 #fcfcfc #000000 #000000;
#X obj 242 1600 tgl 19 0 empty empty empty 0 -10 0 12 #fcfcfc #000000 #000000 0 1;
#X obj 427 1708 tgl 19 0 empty empty empty 0 -10 0 12 #fcfcfc #000000 #000000 0 1;
#X obj 423 1743 metro 100;
#X obj 520 1734 - 20;
#X obj 350 1873 pix_data;
#X connect 0 0 41 0;
#X connect 2 0 69 0;
#X connect 3 0 69 0;
#X connect 4 0 14 0;
#X connect 4 0 29 0;
#X connect 7 0 12 0;
#X connect 8 0 41 0;
#X connect 12 0 4 0;
#X connect 14 0 13 0;
#X connect 14 0 41 1;
#X connect 15 0 16 0;
#X connect 15 0 23 0;
#X connect 15 0 24 0;
#X connect 16 0 15 1;
#X connect 17 0 20 1;
#X connect 17 0 21 0;
#X connect 18 0 15 0;
#X connect 19 0 20 0;
#X connect 19 0 74 0;
#X connect 20 0 18 0;
#X connect 22 0 17 0;
#X connect 23 0 77 0;
#X connect 24 0 25 0;
#X connect 24 0 70 1;
#X connect 30 0 36 0;
#X connect 34 0 30 0;
#X connect 35 0 0 0;
#X connect 36 0 31 0;
#X connect 37 0 36 1;
#X connect 38 0 7 0;
#X connect 38 1 6 0;
#X connect 38 2 5 0;
#X connect 38 3 39 0;
#X connect 41 0 1 0;
#X connect 41 1 38 0;
#X connect 41 2 32 0;
#X connect 43 0 70 0;
#X connect 45 0 24 1;
#X connect 46 0 70 0;
#X connect 49 0 43 0;
#X connect 50 0 45 0;
#X connect 50 3 51 0;
#X connect 51 0 22 0;
#X connect 70 0 44 0;
#X connect 70 1 50 0;
#X connect 71 0 15 1;
#X connect 72 0 15 1;
#X connect 73 0 72 0;
#X connect 75 0 76 0;
#X connect 76 0 73 0;
#X connect 77 0 72 1;
#X coords 0 0 1 1 85 60 0;
