#N canvas 1291 161 278 285 12;
#X declare -lib Gem;
#X obj 13 11 declare -lib Gem;
#N canvas 403 248 676 417 video-player 1;
#X msg 25 118 destroy;
#X obj 262 201 f;
#X obj 304 182 + 1;
#X obj 262 170 bng 15 50 10 0 empty empty empty 17 7 0 10 #fcfcfc #000000 #000000;
#X obj 262 97 tgl 15 1 empty empty empty 17 7 0 10 #fcfcfc #000000 #000000 1 1;
#X obj 262 127 metro 200;
#X floatatom 347 136 5 0 0 0 - - - 0;
#X floatatom 347 84 5 0 0 0 - - - 0;
#X floatatom 540 137 5 0 0 0 - - - 0;
#X obj 262 289 mod;
#X floatatom 262 314 5 0 0 0 - - - 0;
#X obj 14 190 gemhead;
#X floatatom 35 314 5 0 0 0 - - - 0;
#X obj 27 240 bng 15 250 50 0 empty empty empty 17 7 0 10 #fcfcfc #000000 #000000;
#X obj 14 170 tgl 15 1 empty empty empty 17 7 0 10 #fcfcfc #000000 #000000 1 1;
#X obj 57 286 unpack f f f f, f 15;
#X floatatom 189 314 5 0 0 0 - - - 0;
#X obj 378 234 f;
#X obj 378 210 bng 19 50 30 0 empty empty empty 0 -10 0 12 #fcfcfc #000000 #000000;
#X obj 377 164 tgl 19 0 empty jump empty 0 -10 0 12 #fcfcfc #000000 #000000 0 1;
#X obj 540 167 - 20;
#X obj 262 338 s mod;
#X obj 144 231 r mod;
#X obj 189 338 s fps;
#X obj 347 58 r fps;
#X obj 27 217 loadbang;
#X obj 540 114 r mod;
#X obj 35 339 s frames;
#X obj 280 261 r frames;
#X obj 558 191 r frames;
#X obj 540 215 mod;
#X obj 14 145 gemwin 30;
#X obj 347 108 expr 1000/$f1;
#X obj 100 314 pack \$1 \$2;
#X msg 11 71 create \, dimen \$1 \$2 \, 1;
#X obj 100 339 s size;
#X obj 19 44 r size;
#X obj 15 372 rectangle 5 4;
#X obj 13 261 pix_movie screen.mp4;
#X obj 11 20 r play;
#X obj 27 93 r stop;
#X obj 122 140 bng 20 250 50 0 empty empty empty 0 -6 0 8 #fcfcfc #000000 #000000;
#X obj 122 171 openpanel;
#X msg 122 197 open \$1;
#X obj 122 113 r file;
#X obj 262 67 loadbang;
#X obj 469 125 r bpm;
#X msg 417 156 tempo \$1 permin;
#X obj 377 188 metro;
#X connect 0 0 31 0;
#X connect 1 0 2 0;
#X connect 1 0 9 0;
#X connect 2 0 1 1;
#X connect 3 0 1 0;
#X connect 4 0 5 0;
#X connect 5 0 3 0;
#X connect 7 0 32 0;
#X connect 8 0 20 0;
#X connect 9 0 10 0;
#X connect 10 0 21 0;
#X connect 11 0 38 0;
#X connect 12 0 27 0;
#X connect 13 0 38 0;
#X connect 14 0 11 0;
#X connect 15 0 12 0;
#X connect 15 1 33 0;
#X connect 15 2 33 1;
#X connect 15 3 16 0;
#X connect 16 0 23 0;
#X connect 17 0 1 1;
#X connect 18 0 17 0;
#X connect 19 0 48 0;
#X connect 20 0 30 0;
#X connect 22 0 38 1;
#X connect 24 0 7 0;
#X connect 25 0 13 0;
#X connect 26 0 8 0;
#X connect 28 0 9 1;
#X connect 29 0 30 1;
#X connect 30 0 17 1;
#X connect 32 0 5 1;
#X connect 32 0 6 0;
#X connect 33 0 35 0;
#X connect 34 0 31 0;
#X connect 36 0 34 0;
#X connect 38 0 37 0;
#X connect 38 1 15 0;
#X connect 39 0 34 0;
#X connect 40 0 0 0;
#X connect 41 0 42 0;
#X connect 42 0 43 0;
#X connect 43 0 38 0;
#X connect 44 0 41 0;
#X connect 45 0 4 0;
#X connect 46 0 47 0;
#X connect 47 0 48 0;
#X connect 48 0 18 0;
#X restore 13 36 pd video-player;
#N canvas 665 25 325 408 OSC-OUT 0;
#X obj 30 332 udpsend;
#X obj 30 204 packOSC;
#X obj 30 365 tgl 15 0 empty empty empty 17 7 0 10 #fcfcfc #000000 #000000 0 1;
#X msg 83 300 disconnect;
#X msg 48 245 connect 127.0.0.1 7000;
#X obj 31 12 r \$0-video1;
#X obj 31 47 random 4;
#X obj 30 79 nbx 5 17 -1e+37 1e+37 0 0 empty empty empty 0 -10 0 12 #fcfcfc #000000 #000000 0 256;
#X msg 30 158 /composition/layers/1/clips/\$1/connect;
#X obj 30 114 + 1;
#X msg 69 273 connect 192.168.2.158 7000;
#X connect 0 0 2 0;
#X connect 1 0 0 0;
#X connect 3 0 0 0;
#X connect 4 0 0 0;
#X connect 5 0 6 0;
#X connect 6 0 7 0;
#X connect 7 0 9 0;
#X connect 8 0 1 0;
#X connect 9 0 8 0;
#X connect 10 0 0 0;
#X restore 13 61 pd OSC-OUT;
#X obj 15 127 bng 19 250 50 0 play empty Play 25 10 0 12 #00ff04 #000000 #000000;
#X obj 84 126 bng 19 250 50 0 stop empty Stop 25 10 0 12 #ff0400 #000000 #000000;
#X obj 152 126 bng 19 250 50 0 file empty Select\ File 25 10 0 12 #576dff #000000 #000000;
#X text 12 102 VIDEO;
#X obj 15 176 tgl 19 0 jump empty Jump 25 10 0 12 #feffc6 #000000 #000000 0 1;
#X obj 15 248 s bpm;
#X floatatom 15 224 4 0 0 0 - - - 0;
#X obj 18 203 hsl 100 15 0 1000 0 1 empty empty empty -2 -10 0 12 #fcfcfc #000000 #000000 1300 1;
#X connect 9 0 8 0;
#X connect 10 0 9 0;
#X coords 0 0 1 1 85 60 0;
