#N canvas 0 37 960 1018 12;
#X declare -lib Gem;
#X msg 308 280 create \, 1;
#X msg 318 310 destroy;
#X obj 402 680 f;
#X obj 432 680 + 1;
#X obj 462 590 expr 1000/ $f1;
#X obj 402 649 bng 15 50 10 0 empty empty empty 17 7 0 10 #fcfcfc #000000
#000000;
#X obj 402 500 tgl 15 0 empty empty empty 17 7 0 10 #fcfcfc #000000
#000000 0 1;
#X obj 402 620 metro 200;
#X floatatom 482 620 5 0 0 0 - - -, f 5;
#X floatatom 462 560 5 0 0 0 - - -, f 5;
#X floatatom 414 710 5 0 0 0 - - -, f 5;
#X obj 402 740 mod;
#X floatatom 402 769 5 0 0 0 - - -, f 5;
#X text 138 170 ************************************************************
;
#X obj 152 531 gemhead;
#X obj 162 648 rectangle 4 3;
#X floatatom 197 711 5 0 0 0 - - -, f 5;
#X obj 172 571 bng 15 250 50 0 empty empty empty 17 7 0 10 #fcfcfc
#000000 #000000;
#X text 187 741 cuadros;
#X text 192 571 output info;
#X obj 152 500 tgl 15 0 empty empty empty 17 7 0 10 #fcfcfc #000000
#000000 0 1;
#X obj 197 681 unpack f f f f, f 15;
#X floatatom 297 710 5 0 0 0 - - -, f 5;
#X text 297 740 fps;
#X text 187 761 totales;
#X text 140 410 ************************************************************
;
#X msg 442 650 0;
#X text 478 650 reset;
#X text 140 2000 ************************************************************
;
#X text 142 92 ************************************************************
;
#X text 142 22 ************************************************************
;
#X text 285 42 Programación en PD;
#X text 289 62 por Damian Anache;
#X text 242 122 Introducción a librería GEM:;
#X obj 290 240 declare -lib Gem;
#X obj 308 340 gemwin 30;
#X obj 151 1110 pix_data;
#X obj 136 1294 tgl 15 0 empty \$0-toggle-inicial empty 17 7 0 10 #fcfcfc
#000000 #000000 0 1;
#X obj 177 1191 unpack f f f;
#X obj 136 1480 circle 0.2;
#X obj 136 1430 translateXYZ 0 3 0;
#X obj 136 1350 colorRGB, f 24;
#X obj 318 940 hsl 128 15 0 1 0 1 empty empty empty -2 -8 0 10 #fcfcfc
#000000 #000000 5440 1;
#X obj 458 940 vsl 15 128 0 1 0 1 empty empty empty 0 -9 0 10 #fcfcfc
#000000 #000000 7690 1;
#X obj 318 960 t b f;
#X obj 458 1080 t b f;
#X obj 136 1320 gemhead 150;
#X obj 298 1480 circle 0.2;
#X msg 398 1460 draw line;
#X obj 398 1430 loadbang;
#X obj 350 1370 escalamientoRango 0 1 -4 4;
#X obj 298 1450 color 1 1 1;
#X obj 490 1400 escalamientoRango 0 1 -3 3;
#X obj 152 1051 t b a;
#X obj 152 620 pix_movie marina.mp4;
#X obj 176 1600 expr if(($f1 + $f2 + $f3) >= 0.5 \, 1 \, 0);
#X obj 176 1629 sel 1;
#X obj 176 1778 bng 15 250 50 0 empty empty empty 17 7 0 10 #fcfcfc
#000000 #000000;
#X obj 176 1941 dac~ 1 2;
#X obj 176 1860 *~ 0.5;
#X obj 176 1832 readsf~;
#X msg 176 1800 open clap.wav \, 1;
#X obj 176 1720 once;
#X msg 206 1690 0;
#X obj 216 1750 del 500;
#X msg 318 910 0.452;
#X msg 458 910 0.574;
#X obj 318 880 loadbang;
#X obj 206 1660 loadbang;
#X text 226 1720 elimina redundancia. solo 1 bang c/ 500 ms;
#X text 210 140 Analisis de video para control de audio.;
#X obj 176 1910 *~;
#X obj 194 1890 tgl 15 0 empty empty empty 17 7 0 10 #fcfcfc #000000
#000000 0 1;
#X connect 0 0 35 0;
#X connect 1 0 35 0;
#X connect 2 0 3 0;
#X connect 2 0 10 0;
#X connect 2 0 11 0;
#X connect 3 0 2 1;
#X connect 4 0 7 1;
#X connect 4 0 8 0;
#X connect 5 0 2 0;
#X connect 6 0 7 0;
#X connect 7 0 5 0;
#X connect 9 0 4 0;
#X connect 11 0 12 0;
#X connect 11 0 54 1;
#X connect 14 0 54 0;
#X connect 16 0 11 1;
#X connect 17 0 54 0;
#X connect 20 0 14 0;
#X connect 21 0 16 0;
#X connect 21 3 22 0;
#X connect 22 0 9 0;
#X connect 26 0 2 1;
#X connect 36 1 38 0;
#X connect 37 0 46 0;
#X connect 38 0 41 1;
#X connect 38 0 55 0;
#X connect 38 1 41 2;
#X connect 38 1 55 1;
#X connect 38 2 41 3;
#X connect 38 2 55 2;
#X connect 40 0 39 0;
#X connect 40 0 51 0;
#X connect 41 0 40 0;
#X connect 42 0 44 0;
#X connect 43 0 45 0;
#X connect 44 0 36 0;
#X connect 44 1 36 2;
#X connect 44 1 50 0;
#X connect 45 0 36 0;
#X connect 45 1 36 3;
#X connect 45 1 52 0;
#X connect 46 0 41 0;
#X connect 48 0 47 0;
#X connect 49 0 48 0;
#X connect 50 0 40 1;
#X connect 51 0 47 0;
#X connect 52 0 40 2;
#X connect 53 0 36 0;
#X connect 53 1 36 1;
#X connect 54 0 15 0;
#X connect 54 0 53 0;
#X connect 54 1 21 0;
#X connect 55 0 56 0;
#X connect 56 0 62 0;
#X connect 57 0 61 0;
#X connect 59 0 71 0;
#X connect 60 0 59 0;
#X connect 61 0 60 0;
#X connect 62 0 57 0;
#X connect 62 0 64 0;
#X connect 63 0 62 1;
#X connect 64 0 62 1;
#X connect 65 0 42 0;
#X connect 66 0 43 0;
#X connect 67 0 65 0;
#X connect 67 0 66 0;
#X connect 68 0 63 0;
#X connect 71 0 58 1;
#X connect 71 0 58 0;
#X connect 72 0 71 1;
#X coords 0 0 1 1 85 60 0;
