#N canvas 824 131 588 626 12;
#X declare -lib Gem;
#X msg 33 70 create \, 1;
#X msg 43 100 destroy;
#X obj 281 281 f;
#X obj 320 281 + 1;
#X obj 366 172 expr 1000/ $f1;
#X obj 281 250 bng 15 50 10 0 empty empty empty 17 7 0 10 #fcfcfc #000000 #000000;
#X obj 279 98 tgl 15 0 empty empty empty 17 7 0 10 #fcfcfc #000000 #000000 0 1;
#X obj 279 128 metro 200;
#X floatatom 366 206 5 0 0 0 - - - 0;
#X floatatom 379 130 5 0 0 0 - - - 0;
#X floatatom 480 348 5 0 0 0 - - - 0;
#X obj 280 410 mod;
#X floatatom 279 450 5 0 0 0 - - - 0;
#X obj 31 202 gemhead;
#X obj 30 459 rectangle 4 3;
#X floatatom 60 362 5 0 0 0 - - - 0;
#X obj 43 251 bng 15 250 50 0 empty empty empty 17 7 0 10 #fcfcfc #000000 #000000;
#X obj 31 172 tgl 15 0 empty empty empty 17 7 0 10 #fcfcfc #000000 #000000 0 1;
#X obj 60 332 unpack f f f f, f 15;
#X floatatom 160 371 5 0 0 0 - - - 0;
#X text 171 393 fps;
#X obj 33 31 declare -lib Gem;
#X obj 33 130 gemwin 30;
#X obj 30 291 pix_movie video.mp4;
#X msg 299 249 20;
#X obj 400 393 f;
#X obj 400 367 bng 19 250 50 0 empty empty empty 0 -10 0 12 #fcfcfc #000000 #000000;
#X obj 401 301 tgl 19 0 empty empty empty 0 -10 0 12 #fcfcfc #000000 #000000 0 1;
#X obj 400 335 metro 100;
#X obj 480 377 - 20;
#X obj 474 46 pix_data;
#X obj 497 107 vsl 19 162 0 127 0 0 empty empty empty 0 -9 0 12 #fcfcfc #000000 #000000 0 1;
#X obj 279 489 s mod;
#X obj 160 261 r mod;
#X obj 160 414 s fps;
#X obj 379 98 r fps;
#X obj 43 226 loadbang;
#X obj 480 321 r mod;
#X obj 60 393 s frames;
#X obj 299 381 r frames;
#X obj 497 407 r frames;
#X obj 479 434 mod;
#X connect 0 0 22 0;
#X connect 1 0 22 0;
#X connect 2 0 3 0;
#X connect 2 0 11 0;
#X connect 3 0 2 1;
#X connect 4 0 7 1;
#X connect 4 0 8 0;
#X connect 5 0 2 0;
#X connect 6 0 7 0;
#X connect 7 0 5 0;
#X connect 9 0 4 0;
#X connect 10 0 29 0;
#X connect 11 0 12 0;
#X connect 12 0 32 0;
#X connect 13 0 23 0;
#X connect 15 0 38 0;
#X connect 16 0 23 0;
#X connect 17 0 13 0;
#X connect 18 0 15 0;
#X connect 18 3 19 0;
#X connect 19 0 34 0;
#X connect 23 0 14 0;
#X connect 23 1 18 0;
#X connect 24 0 2 1;
#X connect 25 0 2 1;
#X connect 26 0 25 0;
#X connect 27 0 28 0;
#X connect 28 0 26 0;
#X connect 29 0 41 0;
#X connect 31 0 28 1;
#X connect 33 0 23 1;
#X connect 35 0 9 0;
#X connect 36 0 16 0;
#X connect 37 0 10 0;
#X connect 39 0 11 1;
#X connect 40 0 41 1;
#X connect 41 0 25 1;
#X coords 0 0 1 1 85 60 0;
