#N canvas 381 348 652 536 12;
#X declare -lib Gem;
#X msg 23 108 destroy;
#X obj 262 201 f;
#X obj 304 182 + 1;
#X obj 262 170 bng 15 50 10 0 empty empty empty 17 7 0 10 #fcfcfc #000000 #000000;
#X obj 262 97 tgl 15 0 empty empty empty 17 7 0 10 #fcfcfc #000000 #000000 0 1;
#X obj 262 127 metro 200;
#X floatatom 347 136 5 0 0 0 - - - 0;
#X floatatom 347 84 5 0 0 0 - - - 0;
#X floatatom 540 144 5 0 0 0 - - - 0;
#X obj 262 289 mod;
#X floatatom 262 314 5 0 0 0 - - - 0;
#X obj 14 190 gemhead;
#X floatatom 35 314 5 0 0 0 - - - 0;
#X obj 27 240 bng 15 250 50 0 empty empty empty 17 7 0 10 #fcfcfc #000000 #000000;
#X obj 14 170 tgl 15 0 empty empty empty 17 7 0 10 #fcfcfc #000000 #000000 0 1;
#X obj 57 286 unpack f f f f, f 15;
#X floatatom 189 314 5 0 0 0 - - - 0;
#X obj 14 18 declare -lib Gem;
#X obj 378 234 f;
#X obj 378 210 bng 19 50 30 0 empty empty empty 0 -10 0 12 #fcfcfc #000000 #000000;
#X obj 378 164 tgl 19 0 empty empty empty 0 -10 0 12 #fcfcfc #000000 #000000 0 1;
#X obj 540 167 - 20;
#X obj 262 338 s mod;
#X obj 144 231 r mod;
#X obj 189 338 s fps;
#X obj 347 58 r fps;
#X obj 27 217 loadbang;
#X obj 540 121 r mod;
#X obj 35 339 s frames;
#X obj 280 261 r frames;
#X obj 558 191 r frames;
#X obj 540 215 mod;
#X obj 13 138 gemwin 30;
#X obj 377 188 metro 0.5 140 permin;
#X obj 347 108 expr 1000/$f1;
#X obj 100 314 pack \$1 \$2;
#X msg 13 78 create \, dimen \$1 \$2 \, 1;
#X obj 100 339 s size;
#X obj 13 46 r size;
#X obj 13 261 pix_movie video.mp4;
#X obj 15 372 rectangle 5 4;
#X connect 0 0 32 0;
#X connect 1 0 2 0;
#X connect 1 0 9 0;
#X connect 2 0 1 1;
#X connect 3 0 1 0;
#X connect 4 0 5 0;
#X connect 5 0 3 0;
#X connect 7 0 34 0;
#X connect 8 0 21 0;
#X connect 9 0 10 0;
#X connect 10 0 22 0;
#X connect 11 0 39 0;
#X connect 12 0 28 0;
#X connect 13 0 39 0;
#X connect 14 0 11 0;
#X connect 15 0 12 0;
#X connect 15 1 35 0;
#X connect 15 2 35 1;
#X connect 15 3 16 0;
#X connect 16 0 24 0;
#X connect 18 0 1 1;
#X connect 19 0 18 0;
#X connect 20 0 33 0;
#X connect 21 0 31 0;
#X connect 23 0 39 1;
#X connect 25 0 7 0;
#X connect 26 0 13 0;
#X connect 27 0 8 0;
#X connect 29 0 9 1;
#X connect 30 0 31 1;
#X connect 31 0 18 1;
#X connect 33 0 19 0;
#X connect 34 0 5 1;
#X connect 34 0 6 0;
#X connect 35 0 37 0;
#X connect 36 0 32 0;
#X connect 38 0 36 0;
#X connect 39 0 40 0;
#X connect 39 1 15 0;
#X coords 0 0 1 1 85 60 0;
